#N canvas -8 -8 1920 997 10;
#X obj 16 14 cnv 15 1245 680 empty empty empty 20 12 0 14 -249661 -66577
0;
#X obj 977 224 dac~;
#X obj 977 208 *~ 1;
#X obj 1079 192 tgl 15 0 empty empty empty 17 7 0 10 -245500 -1 -1
1 1;
#X obj 1079 177 loadbang;
#X obj 79 118 vu 30 120 empty empty -1 -8 0 10 -66577 -1 1 0;
#X obj 78 77 env~;
#X obj 78 94 - 100;
#X obj 78 60 r~ vu;
#X obj 1044 224 s~ vu;
#X obj 37 286 cnv 15 150 400 empty empty CHANNEL_1 20 12 0 14 -228856
-66577 0;
#X obj 1079 208 metro 100;
#X obj 1078 224 tabwrite~ dac;
#N canvas 0 22 450 278 (subpatch) 0;
#X array dac 150 float 1;
#A 0 0 0 0 0 0 0 0 0 0 0 0 0 0 0 0 0 0 0 0 0 0 0 0 0 0 0 0 0 0 0 0
0 0 0 0 0 0 0 0 0 0 0 0 0 0 0 0 0 0 0 0 0 0 0 0 0 0 0 0 0 0 0 0 0 0
0 0 0 0 0 0 0 0 0 0 0 0 0 0 0 0 0 0 0 0 0 0 0 0 0 0 0 0 0 0 0 0 0 0
0 0 0 0 0 0 0 0 0 0 0 0 0 0 0 0 0 0 0 0 0 0 0 0 0 0 0 0 0 0 0 0 0 0
0 0 0 0 0 0 0 0 0 0 0 0 0 0 0 0 0;
#X coords 0 1 149 -1 400 180 1 0 0;
#X restore 158 61 graph;
#X obj 187 286 cnv 15 150 400 empty empty CHANNEL_2 20 12 0 14 -261234
-66577 0;
#X obj 487 285 cnv 15 150 400 empty empty CHANNEL_4 20 12 0 14 -262130
-66577 0;
#X obj 638 285 cnv 15 150 400 empty empty CHANNEL_5 20 12 0 14 -204786
-66577 0;
#X obj 788 285 cnv 15 150 400 empty empty CHANNEL_6 20 12 0 14 -204800
-66577 0;
#X obj 938 285 cnv 15 150 400 empty empty CHANNEL_7 20 12 0 14 -203904
-66577 0;
#X obj 1088 285 cnv 15 150 400 empty empty CHANNEL_8 20 12 0 14 -232576
-66577 0;
#X obj 825 219 writesf~ 2;
#X msg 825 187 stop;
#X msg 672 203 open test.wav \, start;
#X obj 672 186 ctlin 45 1;
#X obj 37 648 readsf~;
#X obj 94 649 bng 15 250 50 0 empty empty empty 17 7 0 10 -228856 -1
-1;
#X msg 95 631 0;
#X floatatom 37 442 5 0 0 0 - - -;
#X floatatom 37 473 5 0 0 0 - - -;
#X obj 37 457 / 127;
#X obj 37 307 ctlin 0 1;
#X obj 37 487 *~ 1;
#X obj 116 632 ctlin 32 1;
#X obj 101 615 ctlin 48 1;
#X obj 37 326 vsl 25 113 0 127 0 0 empty empty empty 0 -9 0 10 -262130
-1 -1 0 1;
#X obj 37 631 s~ ch1sam;
#X obj 71 472 r~ ch1sam;
#X obj 826 131 cnv 15 15 15 empty empty STOP_REC 20 9 0 14 -33289 -66577
0;
#X obj 672 131 cnv 15 15 15 empty empty REC 20 9 0 14 -261234 -66577
0;
#X obj 76 29 cnv 15 15 15 empty empty VU 20 9 0 14 -253822 -66577 0
;
#X obj 825 171 ctlin 42 1;
#X obj 771 41 cnv 15 40 40 empty empty pdnkmixer 50 21 0 48 -257983
-66577 0;
#X obj 158 29 cnv 15 15 15 empty empty VISUAL_RECEIVE 20 9 0 14 -162752
-66577 0;
#X obj 721 41 cnv 15 40 40 empty empty empty 50 21 0 48 -162752 -66577
0;
#X obj 671 41 cnv 15 40 40 empty empty empty 50 21 0 48 -261234 -66577
0;
#X obj 976 131 cnv 15 15 15 empty empty VISUAL_SEND 20 9 0 14 -162752
-66577 0;
#X obj 68 504 hsl 115 15 0 127 0 0 empty empty empty -2 -8 0 10 -262130
-1 -1 0 1;
#X obj 65 535 expr 1 - $f1;
#X obj 37 550 *~;
#X obj 65 551 *~;
#X obj 65 488 ctlin 16 1;
#X obj 65 519 / 127;
#X obj 37 599 s~ chl1;
#X obj 65 583 s~ chr1;
#X obj 1023 208 *~ 1;
#X obj 1023 192 r~ chr1;
#X obj 37 615 s~ chl1rec;
#X obj 65 567 s~ chr1rec;
#X obj 825 203 r~ chl1rec;
#X text 141 486 pan;
#X text 65 331 volume;
#X obj 187 648 readsf~;
#X obj 244 649 bng 15 250 50 0 empty empty empty 17 7 0 10 -261234
-1 -1;
#X msg 245 631 0;
#X floatatom 187 442 5 0 0 0 - - -;
#X floatatom 187 473 5 0 0 0 - - -;
#X obj 187 457 / 127;
#X obj 187 487 *~ 1;
#X obj 187 326 vsl 25 113 0 127 0 0 empty empty empty 0 -9 0 10 -262130
-1 -1 0 1;
#X obj 218 504 hsl 115 15 0 127 0 0 empty empty empty -2 -8 0 10 -262130
-1 -1 0 1;
#X obj 215 535 expr 1 - $f1;
#X obj 187 550 *~;
#X obj 215 551 *~;
#X obj 215 519 / 127;
#X text 291 486 pan;
#X text 215 331 volume;
#X obj 187 307 ctlin 1 1;
#X obj 221 472 r~ ch2sam;
#X obj 215 488 ctlin 17 1;
#X obj 215 567 s~ chr2rec;
#X obj 215 583 s~ chr2;
#X obj 187 599 s~ chl2;
#X obj 187 615 s~ chl2rec;
#X obj 187 631 s~ ch2sam;
#X obj 251 615 ctlin 49 1;
#X obj 266 632 ctlin 33 1;
#X obj 1023 192 r~ chr2;
#X obj 825 203 r~ chl2rec;
#X obj 977 192 r~ chl3;
#X obj 977 192 r~ chl4;
#X obj 977 192 r~ chl5;
#X obj 977 192 r~ chl6;
#X obj 977 192 r~ chl7;
#X obj 977 192 r~ chl8;
#X obj 1023 192 r~ chr3;
#X obj 1023 192 r~ chr4;
#X obj 1023 192 r~ chr5;
#X obj 1023 192 r~ chr6;
#X obj 1023 192 r~ chr7;
#X obj 1023 192 r~ chr8;
#X obj 977 192 r~ chl1;
#X obj 977 192 r~ chl2;
#X obj 889 203 r~ chr2rec;
#X obj 889 203 r~ chr1rec;
#X obj 889 203 r~ chr3rec;
#X obj 825 203 r~ chl3rec;
#X obj 825 203 r~ chl4rec;
#X obj 889 203 r~ chr4rec;
#X obj 889 203 r~ chr5rec;
#X obj 825 203 r~ chl5rec;
#X obj 825 203 r~ chl6rec;
#X obj 889 203 r~ chr6rec;
#X obj 825 203 r~ chl7rec;
#X obj 889 203 r~ chr7rec;
#X obj 825 203 r~ chl8rec;
#X obj 889 203 r~ chr8rec;
#X obj 337 285 cnv 15 150 400 empty empty CHANNEL_3 20 12 0 14 -261682
-66577 0;
#X obj 337 648 readsf~;
#X obj 394 649 bng 15 250 50 0 empty empty empty 17 7 0 10 -261682
-1 -1;
#X msg 395 631 0;
#X floatatom 337 442 5 0 0 0 - - -;
#X floatatom 337 473 5 0 0 0 - - -;
#X obj 337 457 / 127;
#X obj 337 487 *~ 1;
#X obj 337 326 vsl 25 113 0 127 0 0 empty empty empty 0 -9 0 10 -262130
-1 -1 0 1;
#X obj 368 504 hsl 115 15 0 127 0 0 empty empty empty -2 -8 0 10 -262130
-1 -1 0 1;
#X obj 365 535 expr 1 - $f1;
#X obj 337 550 *~;
#X obj 365 551 *~;
#X obj 365 519 / 127;
#X text 441 486 pan;
#X text 365 331 volume;
#X obj 337 307 ctlin 2 1;
#X obj 371 472 r~ ch3sam;
#X obj 365 488 ctlin 18 1;
#X obj 365 567 s~ chr3rec;
#X obj 365 583 s~ chr3;
#X obj 337 599 s~ chl3;
#X obj 337 615 s~ chl3rec;
#X obj 337 631 s~ ch3sam;
#X obj 401 615 ctlin 50 1;
#X obj 416 632 ctlin 34 1;
#X obj 487 648 readsf~;
#X obj 544 649 bng 15 250 50 0 empty empty empty 17 7 0 10 -262130
-1 -1;
#X msg 545 631 0;
#X floatatom 487 442 5 0 0 0 - - -;
#X floatatom 487 473 5 0 0 0 - - -;
#X obj 487 457 / 127;
#X obj 487 487 *~ 1;
#X obj 487 326 vsl 25 113 0 127 0 0 empty empty empty 0 -9 0 10 -262130
-1 -1 0 1;
#X obj 518 504 hsl 115 15 0 127 0 0 empty empty empty -2 -8 0 10 -262130
-1 -1 0 1;
#X obj 515 535 expr 1 - $f1;
#X obj 487 550 *~;
#X obj 515 551 *~;
#X obj 515 519 / 127;
#X text 591 486 pan;
#X text 515 331 volume;
#X obj 487 307 ctlin 3 1;
#X obj 521 472 r~ ch4sam;
#X obj 515 488 ctlin 19 1;
#X obj 515 567 s~ chr4rec;
#X obj 515 583 s~ chr4;
#X obj 487 599 s~ chl4;
#X obj 487 615 s~ chl4rec;
#X obj 551 615 ctlin 51 1;
#X obj 566 632 ctlin 35 1;
#X obj 487 631 s~ ch4sam;
#X obj 637 648 readsf~;
#X obj 694 649 bng 15 250 50 0 empty empty empty 17 7 0 10 -204786
-1 -1;
#X msg 695 631 0;
#X floatatom 637 442 5 0 0 0 - - -;
#X floatatom 637 473 5 0 0 0 - - -;
#X obj 637 457 / 127;
#X obj 637 487 *~ 1;
#X obj 637 326 vsl 25 113 0 127 0 0 empty empty empty 0 -9 0 10 -262130
-1 -1 0 1;
#X obj 668 504 hsl 115 15 0 127 0 0 empty empty empty -2 -8 0 10 -262130
-1 -1 0 1;
#X obj 665 535 expr 1 - $f1;
#X obj 637 550 *~;
#X obj 665 551 *~;
#X obj 665 519 / 127;
#X text 741 486 pan;
#X text 665 331 volume;
#X obj 637 307 ctlin 4 1;
#X obj 671 472 r~ ch5sam;
#X obj 665 488 ctlin 20 1;
#X obj 665 567 s~ chr5rec;
#X obj 665 583 s~ chr5;
#X obj 637 599 s~ chl5;
#X obj 637 615 s~ chl5rec;
#X obj 637 631 s~ ch5sam;
#X obj 701 615 ctlin 52 1;
#X obj 716 632 ctlin 36 1;
#X obj 787 648 readsf~;
#X obj 844 649 bng 15 250 50 0 empty empty empty 17 7 0 10 -204800
-1 -1;
#X msg 845 631 0;
#X floatatom 787 442 5 0 0 0 - - -;
#X floatatom 787 473 5 0 0 0 - - -;
#X obj 787 457 / 127;
#X obj 787 487 *~ 1;
#X obj 787 326 vsl 25 113 0 127 0 0 empty empty empty 0 -9 0 10 -262130
-1 -1 0 1;
#X obj 818 504 hsl 115 15 0 127 0 0 empty empty empty -2 -8 0 10 -262130
-1 -1 0 1;
#X obj 815 535 expr 1 - $f1;
#X obj 787 550 *~;
#X obj 815 551 *~;
#X obj 815 519 / 127;
#X text 891 486 pan;
#X text 815 331 volume;
#X obj 787 307 ctlin 5 1;
#X obj 821 472 r~ ch6sam;
#X obj 815 488 ctlin 21 1;
#X obj 815 567 s~ chr6rec;
#X obj 815 583 s~ chr6;
#X obj 787 599 s~ chl6;
#X obj 787 615 s~ chl6rec;
#X obj 787 631 s~ ch6sam;
#X obj 851 615 ctlin 53 1;
#X obj 866 632 ctlin 37 1;
#X obj 938 648 readsf~;
#X obj 995 649 bng 15 250 50 0 empty empty empty 17 7 0 10 -203904
-1 -1;
#X msg 996 631 0;
#X floatatom 938 442 5 0 0 0 - - -;
#X floatatom 938 473 5 0 0 0 - - -;
#X obj 938 457 / 127;
#X obj 938 487 *~ 1;
#X obj 938 326 vsl 25 113 0 127 0 0 empty empty empty 0 -9 0 10 -262130
-1 -1 0 1;
#X obj 969 504 hsl 115 15 0 127 0 0 empty empty empty -2 -8 0 10 -262130
-1 -1 0 1;
#X obj 966 535 expr 1 - $f1;
#X obj 938 550 *~;
#X obj 966 551 *~;
#X obj 966 519 / 127;
#X text 1042 486 pan;
#X text 966 331 volume;
#X obj 938 307 ctlin 6 1;
#X obj 972 472 r~ ch7sam;
#X obj 966 488 ctlin 22 1;
#X obj 966 567 s~ chr7rec;
#X obj 966 583 s~ chr7;
#X obj 938 599 s~ chl7;
#X obj 938 615 s~ chl7rec;
#X obj 938 631 s~ ch7sam;
#X obj 1017 632 ctlin 38 1;
#X obj 1002 615 ctlin 54 1;
#X obj 1088 648 readsf~;
#X obj 1145 649 bng 15 250 50 0 empty empty empty 17 7 0 10 -232576
-1 -1;
#X msg 1146 631 0;
#X floatatom 1088 442 5 0 0 0 - - -;
#X floatatom 1088 473 5 0 0 0 - - -;
#X obj 1088 457 / 127;
#X obj 1088 487 *~ 1;
#X obj 1088 326 vsl 25 113 0 127 0 0 empty empty empty 0 -9 0 10 -262130
-1 -1 0 1;
#X obj 1119 504 hsl 115 15 0 127 0 0 empty empty empty -2 -8 0 10 -262130
-1 -1 0 1;
#X obj 1116 535 expr 1 - $f1;
#X obj 1088 550 *~;
#X obj 1116 551 *~;
#X obj 1116 519 / 127;
#X text 1192 486 pan;
#X text 1116 331 volume;
#X obj 1088 307 ctlin 7 1;
#X obj 1122 472 r~ ch8sam;
#X obj 1116 488 ctlin 23 1;
#X obj 1116 567 s~ chr8rec;
#X obj 1116 583 s~ chr8;
#X obj 1088 599 s~ chl8;
#X obj 1088 615 s~ chl8rec;
#X obj 1152 615 ctlin 55 1;
#X obj 1167 632 ctlin 39 1;
#X obj 1088 631 s~ ch8sam;
#X msg 787 664 open s/.wav \, 1;
#X msg 938 664 open s/.wav \, 1;
#X msg 1088 664 open s/.wav \, 1;
#X text 1126 94 v. 0.1;
#X text 822 94 looping sample live mixer;
#X msg 37 664 open s/.wav \, 1;
#X msg 187 664 open s/.wav \, 1;
#X msg 337 664 open s/.wav \, 1;
#X msg 487 664 open s/.wav \, 1;
#X msg 637 664 open s/.wav \, 1;
#X connect 2 0 1 0;
#X connect 2 0 9 0;
#X connect 2 0 12 0;
#X connect 3 0 11 0;
#X connect 4 0 3 0;
#X connect 6 0 7 0;
#X connect 7 0 5 0;
#X connect 8 0 6 0;
#X connect 11 0 12 0;
#X connect 21 0 20 0;
#X connect 22 0 20 0;
#X connect 23 0 22 0;
#X connect 24 0 35 0;
#X connect 24 1 25 0;
#X connect 25 0 272 0;
#X connect 26 0 24 0;
#X connect 27 0 29 0;
#X connect 28 0 31 1;
#X connect 29 0 28 0;
#X connect 30 0 34 0;
#X connect 31 0 48 0;
#X connect 31 0 49 0;
#X connect 32 0 25 0;
#X connect 33 0 26 0;
#X connect 34 0 27 0;
#X connect 36 0 31 0;
#X connect 40 0 21 0;
#X connect 46 0 51 0;
#X connect 47 0 48 1;
#X connect 48 0 52 0;
#X connect 48 0 56 0;
#X connect 49 0 53 0;
#X connect 49 0 57 0;
#X connect 50 0 46 0;
#X connect 51 0 47 0;
#X connect 51 0 49 1;
#X connect 54 0 1 1;
#X connect 54 0 9 0;
#X connect 54 0 12 0;
#X connect 55 0 54 0;
#X connect 58 0 20 0;
#X connect 61 0 83 0;
#X connect 61 1 62 0;
#X connect 62 0 273 0;
#X connect 63 0 61 0;
#X connect 64 0 66 0;
#X connect 65 0 67 1;
#X connect 66 0 65 0;
#X connect 67 0 71 0;
#X connect 67 0 72 0;
#X connect 68 0 64 0;
#X connect 69 0 73 0;
#X connect 70 0 71 1;
#X connect 71 0 81 0;
#X connect 71 0 82 0;
#X connect 72 0 79 0;
#X connect 72 0 80 0;
#X connect 73 0 70 0;
#X connect 73 0 72 1;
#X connect 76 0 68 0;
#X connect 77 0 67 0;
#X connect 78 0 69 0;
#X connect 84 0 63 0;
#X connect 85 0 62 0;
#X connect 86 0 54 0;
#X connect 87 0 20 0;
#X connect 88 0 2 0;
#X connect 89 0 2 0;
#X connect 90 0 2 0;
#X connect 91 0 2 0;
#X connect 92 0 2 0;
#X connect 93 0 2 0;
#X connect 94 0 54 0;
#X connect 95 0 54 0;
#X connect 96 0 54 0;
#X connect 97 0 54 0;
#X connect 98 0 54 0;
#X connect 99 0 54 0;
#X connect 100 0 2 0;
#X connect 101 0 2 0;
#X connect 102 0 20 1;
#X connect 103 0 20 1;
#X connect 104 0 20 1;
#X connect 105 0 20 0;
#X connect 106 0 20 0;
#X connect 107 0 20 1;
#X connect 108 0 20 1;
#X connect 109 0 20 0;
#X connect 110 0 20 0;
#X connect 111 0 20 1;
#X connect 112 0 20 0;
#X connect 113 0 20 1;
#X connect 114 0 20 0;
#X connect 115 0 20 1;
#X connect 117 0 139 0;
#X connect 117 1 118 0;
#X connect 118 0 274 0;
#X connect 119 0 117 0;
#X connect 120 0 122 0;
#X connect 121 0 123 1;
#X connect 122 0 121 0;
#X connect 123 0 127 0;
#X connect 123 0 128 0;
#X connect 124 0 120 0;
#X connect 125 0 129 0;
#X connect 126 0 127 1;
#X connect 127 0 137 0;
#X connect 127 0 138 0;
#X connect 128 0 135 0;
#X connect 128 0 136 0;
#X connect 129 0 126 0;
#X connect 129 0 128 1;
#X connect 132 0 124 0;
#X connect 133 0 123 0;
#X connect 134 0 125 0;
#X connect 140 0 119 0;
#X connect 141 0 118 0;
#X connect 142 0 166 0;
#X connect 142 1 143 0;
#X connect 143 0 275 0;
#X connect 144 0 142 0;
#X connect 145 0 147 0;
#X connect 146 0 148 1;
#X connect 147 0 146 0;
#X connect 148 0 152 0;
#X connect 148 0 153 0;
#X connect 149 0 145 0;
#X connect 150 0 154 0;
#X connect 151 0 152 1;
#X connect 152 0 162 0;
#X connect 152 0 163 0;
#X connect 153 0 160 0;
#X connect 153 0 161 0;
#X connect 154 0 151 0;
#X connect 154 0 153 1;
#X connect 157 0 149 0;
#X connect 158 0 148 0;
#X connect 159 0 150 0;
#X connect 164 0 144 0;
#X connect 165 0 143 0;
#X connect 167 0 189 0;
#X connect 167 1 168 0;
#X connect 168 0 276 0;
#X connect 169 0 167 0;
#X connect 170 0 172 0;
#X connect 171 0 173 1;
#X connect 172 0 171 0;
#X connect 173 0 177 0;
#X connect 173 0 178 0;
#X connect 174 0 170 0;
#X connect 175 0 179 0;
#X connect 176 0 177 1;
#X connect 177 0 187 0;
#X connect 177 0 188 0;
#X connect 178 0 185 0;
#X connect 178 0 186 0;
#X connect 179 0 176 0;
#X connect 179 0 178 1;
#X connect 182 0 174 0;
#X connect 183 0 173 0;
#X connect 184 0 175 0;
#X connect 190 0 169 0;
#X connect 191 0 168 0;
#X connect 192 0 214 0;
#X connect 192 1 193 0;
#X connect 193 0 267 0;
#X connect 194 0 192 0;
#X connect 195 0 197 0;
#X connect 196 0 198 1;
#X connect 197 0 196 0;
#X connect 198 0 202 0;
#X connect 198 0 203 0;
#X connect 199 0 195 0;
#X connect 200 0 204 0;
#X connect 201 0 202 1;
#X connect 202 0 212 0;
#X connect 202 0 213 0;
#X connect 203 0 210 0;
#X connect 203 0 211 0;
#X connect 204 0 201 0;
#X connect 204 0 203 1;
#X connect 207 0 199 0;
#X connect 208 0 198 0;
#X connect 209 0 200 0;
#X connect 215 0 194 0;
#X connect 216 0 193 0;
#X connect 217 0 239 0;
#X connect 217 1 218 0;
#X connect 218 0 268 0;
#X connect 219 0 217 0;
#X connect 220 0 222 0;
#X connect 221 0 223 1;
#X connect 222 0 221 0;
#X connect 223 0 227 0;
#X connect 223 0 228 0;
#X connect 224 0 220 0;
#X connect 225 0 229 0;
#X connect 226 0 227 1;
#X connect 227 0 237 0;
#X connect 227 0 238 0;
#X connect 228 0 235 0;
#X connect 228 0 236 0;
#X connect 229 0 226 0;
#X connect 229 0 228 1;
#X connect 232 0 224 0;
#X connect 233 0 223 0;
#X connect 234 0 225 0;
#X connect 240 0 218 0;
#X connect 241 0 219 0;
#X connect 242 0 266 0;
#X connect 242 1 243 0;
#X connect 243 0 269 0;
#X connect 244 0 242 0;
#X connect 245 0 247 0;
#X connect 246 0 248 1;
#X connect 247 0 246 0;
#X connect 248 0 252 0;
#X connect 248 0 253 0;
#X connect 249 0 245 0;
#X connect 250 0 254 0;
#X connect 251 0 252 1;
#X connect 252 0 262 0;
#X connect 252 0 263 0;
#X connect 253 0 260 0;
#X connect 253 0 261 0;
#X connect 254 0 251 0;
#X connect 254 0 253 1;
#X connect 257 0 249 0;
#X connect 258 0 248 0;
#X connect 259 0 250 0;
#X connect 264 0 244 0;
#X connect 265 0 243 0;
#X connect 267 0 192 0;
#X connect 268 0 217 0;
#X connect 269 0 242 0;
#X connect 272 0 24 0;
#X connect 273 0 61 0;
#X connect 274 0 117 0;
#X connect 275 0 142 0;
#X connect 276 0 167 0;
#X coords 0 0 1 1 85 60 0;
